<svg width="887" height="42" viewBox="0 0 887 42" fill="none" xmlns="http://www.w3.org/2000/svg">
<circle cx="18.9116" cy="23.8142" r="18" transform="rotate(-0.325605 18.9116 23.8142)" fill="#C4C4C4"/>
<circle cx="302.907" cy="22.2002" r="18" transform="rotate(-0.325605 302.907 22.2002)" fill="#E5E5E5"/>
<circle cx="585.902" cy="20.592" r="18" transform="rotate(-0.325605 585.902 20.592)" fill="#E5E5E5"/>
<circle cx="868.898" cy="18.9838" r="18" transform="rotate(-0.325605 868.898 18.9838)" fill="#E5E5E5"/>
<g clip-path="url(#clip0_1568_170)">
<path fill-rule="evenodd" clip-rule="evenodd" d="M29.1755 24.9852L17.6526 13.5706C16.6293 12.5589 14.9424 12.6043 13.8856 13.6759L13.764 13.799L13.7169 13.7525C12.5347 12.5822 10.5797 12.6414 9.35064 13.8859L9.00202 14.2399C7.77294 15.483 7.73732 17.4413 8.91961 18.6116L8.96801 18.6594L8.74243 18.889C7.68562 19.9579 7.65672 21.6479 8.68138 22.6624L20.2043 34.0769C21.2276 35.09 22.9172 35.0433 23.9713 33.973L29.1159 28.76C30.174 27.6883 30.2002 25.9996 29.1755 24.9852ZM12.6096 19.956C11.4188 19.9628 10.4492 18.959 10.4394 17.7119C10.4323 16.4662 11.3932 15.4515 12.5839 15.4447C13.7747 15.4379 14.7401 16.4431 14.7513 17.6874C14.7543 18.9345 13.7975 19.9493 12.6096 19.956ZM25.0475 30.7604L23.5486 29.277C22.6557 29.9187 21.5335 30.1258 20.5485 29.7918C20.4361 29.7549 20.3325 29.6956 20.2439 29.6174C20.1553 29.5392 20.0835 29.4437 20.033 29.3368C19.98 29.2269 19.9499 29.1073 19.9445 28.9854C19.9391 28.8635 19.9585 28.7417 20.0015 28.6275C20.085 28.3991 20.2539 28.2121 20.4725 28.1057C20.6912 27.9993 20.9426 27.9819 21.1739 28.0571C21.5017 28.168 21.8755 28.1177 22.2197 27.9576L20.487 26.2377C19.182 27.1829 17.4411 27.1653 16.3722 26.1112C15.2964 25.0489 15.2631 23.3029 16.2058 21.9898L14.7373 20.5365L15.5972 19.6668L17.0754 21.1228C17.9765 20.4838 19.1001 20.2766 20.0865 20.612C20.2002 20.6509 20.3049 20.7122 20.3944 20.7924C20.4838 20.8727 20.5562 20.9701 20.6071 21.0789C20.658 21.1877 20.6865 21.3057 20.6908 21.4257C20.6951 21.5458 20.6752 21.6655 20.6322 21.7777C20.5464 22.005 20.3767 22.1907 20.158 22.2965C19.9394 22.4024 19.6885 22.4204 19.457 22.3468C19.1291 22.2345 18.7581 22.2833 18.4153 22.4393L20.1603 24.1578C21.4572 23.236 23.1775 23.2634 24.2381 24.3106C25.2987 25.3592 25.3497 27.0722 24.4441 28.3726L25.9375 29.8437L25.0475 30.7604Z" fill="#EA5455"/>
<path fill-rule="evenodd" clip-rule="evenodd" d="M18.7119 24.8081C19.0825 25.1731 19.674 25.2083 20.1991 24.9468L18.5563 23.3157C18.2995 23.8465 18.34 24.4403 18.7119 24.8081Z" fill="black"/>
<path fill-rule="evenodd" clip-rule="evenodd" d="M22.9424 25.649C22.5856 25.2949 22.0216 25.2527 21.5101 25.4866L23.1224 27.0752C23.3491 26.5638 23.2992 26.0003 22.9424 25.649Z" fill="black"/>
</g>
<defs>
<clipPath id="clip0_1568_170">
<rect width="22" height="22" fill="white" transform="translate(7.84912 12.877) rotate(-0.325605)"/>
</clipPath>
</defs>
</svg>
