<svg width="22" height="22" viewBox="0 0 21 16" fill="none" xmlns="http://www.w3.org/2000/svg">
<path d="M19.95 0.125H1.05C0.470203 0.125 0 0.628789 0 1.25V14.75C0 15.3712 0.470203 15.875 1.05 15.875H19.95C20.5298 15.875 21 15.3712 21 14.75V1.25C21 0.628789 20.5298 0.125 19.95 0.125ZM5.775 10.527V11.0938C5.775 11.2491 5.65753 11.375 5.5125 11.375H4.9875C4.84247 11.375 4.725 11.2491 4.725 11.0938V10.5211C4.35455 10.5007 3.99427 10.3621 3.69567 10.122C3.5677 10.019 3.56114 9.81371 3.67697 9.69523L4.06252 9.30113C4.15341 9.20832 4.28859 9.2041 4.39491 9.27547C4.52189 9.36055 4.66594 9.40625 4.81556 9.40625H5.73792C5.9512 9.40625 6.12511 9.19812 6.12511 8.94254C6.12511 8.73336 6.00666 8.54914 5.83734 8.495L4.36078 8.02039C3.7508 7.82422 3.32456 7.19703 3.32456 6.49496C3.32456 5.63293 3.94964 4.93262 4.72467 4.91047V4.34375C4.72467 4.18836 4.84214 4.0625 4.98717 4.0625H5.51217C5.6572 4.0625 5.77467 4.18836 5.77467 4.34375V4.91645C6.14512 4.93684 6.50541 5.075 6.804 5.31547C6.93197 5.41848 6.93853 5.62379 6.8227 5.74227L6.43716 6.13637C6.34627 6.22918 6.21108 6.2334 6.10477 6.16203C5.97778 6.0766 5.83373 6.03125 5.68411 6.03125H4.76175C4.54847 6.03125 4.37456 6.23938 4.37456 6.49496C4.37456 6.70414 4.49302 6.88836 4.66233 6.9425L6.13889 7.41711C6.74887 7.61328 7.17511 8.24047 7.17511 8.94254C7.17511 9.80492 6.55003 10.5049 5.775 10.527ZM13.65 9.96875C13.65 10.1241 13.5325 10.25 13.3875 10.25H9.7125C9.56747 10.25 9.45 10.1241 9.45 9.96875V9.40625C9.45 9.25086 9.56747 9.125 9.7125 9.125H13.3875C13.5325 9.125 13.65 9.25086 13.65 9.40625V9.96875ZM18.9 9.96875C18.9 10.1241 18.7825 10.25 18.6375 10.25H16.0125C15.8675 10.25 15.75 10.1241 15.75 9.96875V9.40625C15.75 9.25086 15.8675 9.125 16.0125 9.125H18.6375C18.7825 9.125 18.9 9.25086 18.9 9.40625V9.96875ZM18.9 6.59375C18.9 6.74914 18.7825 6.875 18.6375 6.875H9.7125C9.56747 6.875 9.45 6.74914 9.45 6.59375V6.03125C9.45 5.87586 9.56747 5.75 9.7125 5.75H18.6375C18.7825 5.75 18.9 5.87586 18.9 6.03125V6.59375Z" fill="#EA5455"/>
</svg>
