<svg width="26" height="23" viewBox="0 0 26 23" fill="none" xmlns="http://www.w3.org/2000/svg">
<path d="M14.3058 11.806L13.8307 12.1481L12.3606 10.1066C12.2868 10.004 12.1207 9.99752 11.9894 10.092L11.5862 10.3824C11.4454 10.4838 11.3313 10.6152 11.2582 10.7605L10.9737 11.3254C10.9575 11.3576 10.9477 11.391 10.9449 11.4238C10.9421 11.4565 10.9464 11.4879 10.9575 11.5163C10.9686 11.5446 10.9862 11.5692 11.0095 11.5887C11.0328 11.6083 11.0612 11.6223 11.0931 11.6302L11.5791 11.7491C11.611 11.7569 11.6458 11.7583 11.6815 11.7532C11.7171 11.7481 11.753 11.7366 11.7871 11.7194C11.8211 11.7022 11.8526 11.6795 11.8798 11.6527C11.907 11.626 11.9293 11.5956 11.9455 11.5634L11.9543 11.5462L12.8805 12.8324L12.4053 13.1745C12.2741 13.269 12.2276 13.4286 12.3014 13.5311L12.5687 13.9023C12.6425 14.0049 12.8086 14.0114 12.9399 13.9169L14.8404 12.5484C14.9716 12.4538 15.0181 12.2942 14.9443 12.1917L14.677 11.8205C14.6032 11.718 14.4371 11.7115 14.3058 11.806ZM18.1658 1.1353L1.06136 13.4519C0.536646 13.8297 0.350503 14.4686 0.645687 14.8785L5.99141 22.3023C6.2866 22.7122 6.95152 22.7382 7.47623 22.3604L24.5806 10.0438C25.1054 9.66601 25.2915 9.02715 24.9963 8.61721L19.6506 1.19343C19.3554 0.783493 18.6905 0.757464 18.1658 1.1353ZM7.14949 20.9047L6.08035 19.4199C7.13007 18.6641 8.45945 18.7161 9.04998 19.5362L7.14949 20.9047ZM3.40749 15.7081L2.33834 14.2233L4.23883 12.8548C4.82937 13.6749 4.45721 14.9522 3.40749 15.7081ZM14.692 14.3462C13.1176 15.4799 11.0035 15.2355 9.97027 13.8006C8.93687 12.3655 9.37556 10.2832 10.95 9.14952C12.5244 8.0158 14.6383 8.25998 15.6717 9.69509C16.7053 11.1304 16.2658 13.2129 14.692 14.3462ZM23.3037 9.2724L21.4032 10.6409C20.8126 9.82081 21.1848 8.54353 22.2345 7.78765L23.3037 9.2724ZM19.5617 4.07575C18.5119 4.83164 17.1826 4.7796 16.592 3.9595L18.4925 2.59099L19.5617 4.07575Z" fill="#EA5455"/>
</svg>
