<svg width="22" height="22" viewBox="0 0 22 22" fill="none" xmlns="http://www.w3.org/2000/svg">
<path fill-rule="evenodd" clip-rule="evenodd" d="M21.2573 12.2292L9.79944 0.749339C8.78194 -0.268161 7.09481 -0.232411 6.03194 0.833214L5.90956 0.955589L5.86281 0.908839C4.68719 -0.268161 2.73194 -0.220036 1.49581 1.01746L1.14519 1.36946C-0.0909384 2.60559 -0.137688 4.56359 1.03794 5.74059L1.08606 5.78871L0.859187 6.01696C-0.203688 7.07984 -0.242188 8.76971 0.776687 9.78996L12.2346 21.2698C13.2521 22.2887 14.9419 22.2516 16.0021 21.1873L21.1762 16.0036C22.2404 14.938 22.2762 13.2495 21.2573 12.2292V12.2292ZM4.72019 7.10596C3.52944 7.10596 2.56556 6.09671 2.56281 4.84959C2.56281 3.60384 3.52944 2.59459 4.72019 2.59459C5.91094 2.59459 6.87069 3.60521 6.87481 4.84959C6.87069 6.09671 5.90819 7.10596 4.72019 7.10596ZM17.0966 17.9808L15.6061 16.489C14.7096 17.1256 13.5862 17.3263 12.6031 16.9867C12.491 16.9492 12.3877 16.8893 12.2995 16.8106C12.2113 16.7318 12.1401 16.636 12.0902 16.5288C12.0378 16.4186 12.0084 16.2989 12.0037 16.1769C11.999 16.055 12.019 15.9333 12.0627 15.8193C12.1475 15.5914 12.3175 15.4054 12.5367 15.3002C12.756 15.1951 13.0075 15.1791 13.2383 15.2556C13.5656 15.3683 13.9396 15.3202 14.2847 15.1621L12.5618 13.4323C11.2514 14.3701 9.51069 14.3426 8.44781 13.2825C7.37806 12.2141 7.35469 10.4678 8.30481 9.16021L6.84456 7.69859L7.70944 6.83371L9.17931 8.29809C10.0841 7.66421 11.2088 7.46346 12.1933 7.80446C12.3068 7.84395 12.4111 7.9059 12.5001 7.98662C12.5891 8.06735 12.6609 8.16518 12.7112 8.27429C12.7615 8.38339 12.7893 8.50151 12.7929 8.6216C12.7966 8.74169 12.776 8.86128 12.7323 8.97321C12.6452 9.19999 12.4745 9.38472 12.2553 9.48935C12.036 9.59398 11.785 9.61053 11.5539 9.53559C11.2267 9.42146 10.8554 9.46821 10.5117 9.62221L12.2469 11.3506C13.5491 10.4362 15.2692 10.4733 16.3238 11.5266C17.3784 12.5812 17.4197 14.2945 16.5067 15.5897L17.9917 17.0692L17.0966 17.9808Z" fill="#EA5455"/>
</svg>
