<svg width="22" height="22" viewBox="0 0 24 19" fill="none" xmlns="http://www.w3.org/2000/svg">
<path d="M6.875 17.375C8.11764 17.375 9.125 16.3676 9.125 15.125C9.125 13.8824 8.11764 12.875 6.875 12.875C5.63236 12.875 4.625 13.8824 4.625 15.125C4.625 16.3676 5.63236 17.375 6.875 17.375Z" stroke="#EA5455" stroke-width="2" stroke-linecap="round" stroke-linejoin="round"/>
<path d="M18.125 17.375C19.3676 17.375 20.375 16.3676 20.375 15.125C20.375 13.8824 19.3676 12.875 18.125 12.875C16.8824 12.875 15.875 13.8824 15.875 15.125C15.875 16.3676 16.8824 17.375 18.125 17.375Z" stroke="#EA5455" stroke-width="2" stroke-linecap="round" stroke-linejoin="round"/>
<path d="M13.625 2.75H19.25L22.625 8.375M4.625 15.125H2.375V10.625L4.625 15.125ZM1.25 1.625H13.625V15.125L1.25 1.625ZM9.125 15.125H15.875H9.125ZM20.375 15.125H22.625V8.375H13.625L20.375 15.125Z" stroke="#EA5455" stroke-width="2" stroke-linecap="round" stroke-linejoin="round"/>
<path d="M2.375 6.125H6.875" stroke="#EA5455" stroke-width="2" stroke-linecap="round" stroke-linejoin="round"/>
</svg>
