<svg width="30" height="28" viewBox="0 0 30 28" fill="none" xmlns="http://www.w3.org/2000/svg">
<path fill-rule="evenodd" clip-rule="evenodd" d="M20.1201 10.9002C20.1793 10.9467 20.2264 11.0018 20.2584 11.0625C20.2905 11.1233 20.307 11.1883 20.307 11.2541C20.307 11.3198 20.2905 11.3849 20.2584 11.4456C20.2264 11.5064 20.1793 11.5615 20.1201 11.6079L16.303 14.6066C16.2439 14.6531 16.1737 14.6901 16.0964 14.7153C16.0191 14.7404 15.9362 14.7534 15.8526 14.7534C15.7689 14.7534 15.686 14.7404 15.6087 14.7153C15.5314 14.6901 15.4612 14.6531 15.4021 14.6066L13.4936 13.1073C13.4344 13.0608 13.3875 13.0056 13.3555 12.9449C13.3235 12.8842 13.307 12.8191 13.307 12.7534C13.307 12.6877 13.3235 12.6226 13.3555 12.5619C13.3875 12.5012 13.4344 12.446 13.4936 12.3996C13.5527 12.3531 13.6229 12.3162 13.7002 12.2911C13.7775 12.266 13.8603 12.253 13.944 12.253C14.0276 12.253 14.1105 12.266 14.1878 12.2911C14.265 12.3162 14.3353 12.3531 14.3944 12.3996L15.8526 13.5461L19.2193 10.9002C19.2784 10.8537 19.3486 10.8168 19.4259 10.7916C19.5031 10.7664 19.586 10.7534 19.6697 10.7534C19.7534 10.7534 19.8362 10.7664 19.9135 10.7916C19.9908 10.8168 20.061 10.8537 20.1201 10.9002Z" fill="white"/>
<path fill-rule="evenodd" clip-rule="evenodd" d="M0.307007 1.65342C0.307007 1.41472 0.408855 1.1858 0.590146 1.01702C0.771436 0.848239 1.01732 0.753418 1.2737 0.753418H4.17379C4.38943 0.753473 4.59885 0.820649 4.76876 0.944262C4.93867 1.06788 5.05931 1.24083 5.11149 1.43562L5.89451 4.35342H28.3412C28.4832 4.35354 28.6233 4.38276 28.7518 4.43901C28.8802 4.49526 28.9938 4.57715 29.0844 4.67886C29.175 4.78058 29.2404 4.89963 29.2761 5.02755C29.3117 5.15547 29.3166 5.28912 29.2905 5.41902L26.3904 19.819C26.3489 20.0253 26.2314 20.2115 26.058 20.3456C25.8847 20.4797 25.6665 20.5532 25.4411 20.5534H8.04058C7.81521 20.5532 7.59699 20.4797 7.42365 20.3456C7.25032 20.2115 7.13275 20.0253 7.09128 19.819L4.19313 5.44602L3.41977 2.55342H1.2737C1.01732 2.55342 0.771436 2.4586 0.590146 2.28981C0.408855 2.12103 0.307007 1.89211 0.307007 1.65342ZM6.30439 6.15342L8.84294 18.7534H24.6388L27.1773 6.15342H6.30439ZM9.97397 20.5534C8.94844 20.5534 7.9649 20.9327 7.23974 21.6078C6.51458 22.283 6.10719 23.1986 6.10719 24.1534C6.10719 25.1082 6.51458 26.0239 7.23974 26.699C7.9649 27.3741 8.94844 27.7534 9.97397 27.7534C10.9995 27.7534 11.983 27.3741 12.7082 26.699C13.4334 26.0239 13.8408 25.1082 13.8408 24.1534C13.8408 23.1986 13.4334 22.283 12.7082 21.6078C11.983 20.9327 10.9995 20.5534 9.97397 20.5534ZM23.5077 20.5534C22.4822 20.5534 21.4987 20.9327 20.7735 21.6078C20.0483 22.283 19.6409 23.1986 19.6409 24.1534C19.6409 25.1082 20.0483 26.0239 20.7735 26.699C21.4987 27.3741 22.4822 27.7534 23.5077 27.7534C24.5333 27.7534 25.5168 27.3741 26.242 26.699C26.9671 26.0239 27.3745 25.1082 27.3745 24.1534C27.3745 23.1986 26.9671 22.283 26.242 21.6078C25.5168 20.9327 24.5333 20.5534 23.5077 20.5534ZM9.97397 22.3534C9.4612 22.3534 8.96944 22.5431 8.60686 22.8806C8.24428 23.2182 8.04058 23.676 8.04058 24.1534C8.04058 24.6308 8.24428 25.0886 8.60686 25.4262C8.96944 25.7638 9.4612 25.9534 9.97397 25.9534C10.4867 25.9534 10.9785 25.7638 11.3411 25.4262C11.7037 25.0886 11.9074 24.6308 11.9074 24.1534C11.9074 23.676 11.7037 23.2182 11.3411 22.8806C10.9785 22.5431 10.4867 22.3534 9.97397 22.3534ZM23.5077 22.3534C22.995 22.3534 22.5032 22.5431 22.1406 22.8806C21.778 23.2182 21.5743 23.676 21.5743 24.1534C21.5743 24.6308 21.778 25.0886 22.1406 25.4262C22.5032 25.7638 22.995 25.9534 23.5077 25.9534C24.0205 25.9534 24.5123 25.7638 24.8748 25.4262C25.2374 25.0886 25.4411 24.6308 25.4411 24.1534C25.4411 23.676 25.2374 23.2182 24.8748 22.8806C24.5123 22.5431 24.0205 22.3534 23.5077 22.3534Z" fill="white"/>
</svg>
